# xmcd
#
# Track frame offsets:
#	150
#	18568
#	33591
#	53417
#	70388
#	100355
#	118314
#	137955
#	157986
#	162550
#	167134
#
# Disc length: 2304 seconds
#
# Revision: 1
# Processed by: cddbd v1.5.1PL2 Copyright (c) Steve Scherf et al.
# Submitted via: audiograbber 1.83.01
#
DISCID=9b08fe0b
DTITLE=Various Artisis - Live your life with Verve
DYEAR=2004
DGENRE=Jazz
TTITLE0=Diana Krall  - The Girl in the Other Room
TTITLE1=Jamie Cullum - These are the Days
TTITLE2=Gerald Albright - To the Max
TTITLE3=George Benson - Cell Phone
TTITLE4=John Scofield - It is Written
TTITLE5=Jonatha Brooke - It Matters Now
TTITLE6=Joshua Payne - Your Love, My Home
TTITLE7=Paul Brown - 24
TTITLE8=Herbie Mann - Todos Locos
TTITLE9=Cal Tjader and Eddie Palmeri - Picadillo
TTITLE10=Willie Bobo - La Descarga del Bobo
EXTD=YEAR: 2004
EXTT0=
EXTT1=
EXTT2=
EXTT3=
EXTT4=
EXTT5=
EXTT6=
EXTT7=
EXTT8=
EXTT9=
EXTT10=
PLAYORDER=
